<?xml version="1.0" encoding="UTF-8"?>
<svg width="35px" height="35px" viewBox="0 0 35 35" version="1.1" xmlns="http://www.w3.org/2000/svg" xmlns:xlink="http://www.w3.org/1999/xlink">
    <title>Group 8</title>
    <defs>
        <path d="M14.5,0 C6.5043793,0 0,6.5043793 0,14.5 C0,22.4956207 6.5043793,29 14.5,29 C22.4956207,29 29,22.4956207 29,14.5 C29,6.5043793 22.4956207,0 14.5,0 Z" id="path-1"></path>
    </defs>
    <g id="Wires-/-Lesson" stroke="none" stroke-width="1" fill="none" fill-rule="evenodd">
        <g id="Learn-Front-Line-Seller-Course-Index" transform="translate(-211.000000, -772.000000)" fill-rule="nonzero">
            <g id="Group-6" transform="translate(129.000000, 756.000000)">
                <g id="Group-8" transform="translate(85.000000, 19.000000)">
                    <g id="Path">
                        <use stroke="#FFFFFF" stroke-width="6" fill="#000000" xlink:href="#path-1"></use>
                        <use stroke="#000000" stroke-width="3" xlink:href="#path-1"></use>
                    </g>
                    <path d="M14.5,10 C12.0186005,10 10,12.0186005 10,14.5 C10,16.9813995 12.0186005,19 14.5,19 C16.9813995,19 19,16.9813995 19,14.5 C19,12.0186005 16.9813995,10 14.5,10 Z" id="Path" fill="#FFFFFF"></path>
                </g>
            </g>
        </g>
    </g>
</svg>