<?xml version="1.0" encoding="UTF-8"?>
<svg width="117px" height="130px" viewBox="0 0 117 130" version="1.1" xmlns="http://www.w3.org/2000/svg" xmlns:xlink="http://www.w3.org/1999/xlink">
    <title>E6825171-E749-4913-9A9E-139C1554C980</title>
    <g id="✅-Assessment-Get-Started" stroke="none" stroke-width="1" fill="none" fill-rule="evenodd">
        <g id="Assessment---Great-Job" transform="translate(-710.000000, -296.000000)" fill="#000000" fill-rule="nonzero">
            <g id="Group" transform="translate(710.000000, 296.000000)">
                <path d="M65.2406439,27.9303839 C65.1073826,27.9303839 64.9743577,27.9191616 64.8430584,27.8963783 C64.3499686,27.799036 63.8818495,27.6023547 63.4672032,27.3183099 C62.2195171,26.5336016 61.0633803,25.6678068 59.9438632,24.8255533 L59.3187123,24.3573441 C59.167002,24.2422535 59.0074447,24.1140845 58.8478873,23.9859155 C58.68833,23.8577465 58.5863179,23.7714286 58.4529175,23.6746479 C58.3744467,23.6171026 58.2985915,23.5517103 58.2253521,23.4863179 C57.7963783,23.6380282 57.3700201,23.8028169 56.917505,23.972837 C56.1851107,24.2527163 55.4291751,24.5404427 54.6313883,24.7863179 C54.5189135,24.8203219 54.3698189,24.8752515 54.1971831,24.9354125 C52.7480885,25.4585513 50.0513078,26.4080483 48.9108652,24.639839 C48.6325078,24.1671455 48.5331854,23.6101976 48.6309859,23.0704225 C48.8350101,21.4408451 49.3189135,19.9158954 49.7871227,18.4380282 L49.9676056,17.8730382 C50.1925553,17.1484909 50.3965795,16.52334 50.571831,16.0054326 C49.1096579,14.5014085 46.5907445,11.6215292 46.1251509,9.74869215 C45.8426559,8.63440644 46.1774648,7.91770624 46.5070423,7.50442656 C46.9726446,6.96280581 47.6474384,6.64587164 48.3615694,6.6334004 C50.0643863,6.37183099 53.9774648,6.72756539 55.8032193,6.91327968 C56.8394656,4.95013187 58.0390701,3.07766395 59.389336,1.31569416 C59.7467574,0.830891916 60.2429561,0.466039932 60.8122736,0.269416499 C61.4700338,0.0758631184 62.1764256,0.135584485 62.7923541,0.436820926 C62.987566,0.533115082 63.1688266,0.655422019 63.3311871,0.800402414 C63.713285,1.15378965 64.0010093,1.59706494 64.1682093,2.08993964 C64.8825257,4.19129961 65.4188886,6.34900083 65.7716298,8.54024145 C67.5581489,8.95090543 71.3770624,9.88209256 72.9098592,10.6615694 C73.5809128,10.904161 74.1172427,11.4205212 74.3851107,12.0818913 C74.5682093,12.5762575 74.6466801,13.3661972 74.0293763,14.3313883 C72.9830986,15.9374245 69.7422535,17.8338028 67.8641851,18.798994 C68.0169089,21.186226 67.8719315,23.5831857 67.4325956,25.9346076 C67.22334,27.1613682 66.3366197,27.9303839 65.2406439,27.9303839 Z M58.4215292,20.731992 C58.5030814,20.7316035 58.5845009,20.7386074 58.6647887,20.7529175 C59.1385184,20.8709836 59.5675558,21.1245883 59.8993964,21.4826962 C59.9438632,21.5219316 59.9830986,21.561167 60.0171026,21.5873239 C60.1609658,21.6945674 60.3179074,21.8201207 60.4774648,21.9482897 C60.6370221,22.0764588 60.7390342,22.1653924 60.8750503,22.262173 L61.5054326,22.7356137 C62.6301811,23.5804829 63.6921529,24.3782696 64.8430584,25.0897384 L64.9136821,25.1342052 C65.3130699,22.8284383 65.4010457,20.4794838 65.1752515,18.1503018 C65.1227861,17.6007047 65.4210941,17.0773573 65.9207243,16.8424547 C68.4004024,15.6784708 71.0501006,13.9338028 71.7484909,13.0183099 C70.6158954,12.4088531 66.5851107,11.3965795 64.3094567,10.9022133 C63.7651265,10.7836149 63.355674,10.3332172 63.289336,9.78008048 C62.9762296,7.46781606 62.4437135,5.19060899 61.698994,2.97927565 C61.6740958,2.90626294 61.639804,2.83679997 61.5969819,2.77263581 L61.5760563,2.77263581 C61.5166025,2.82210789 61.463062,2.8782816 61.416499,2.94004024 C60.0025873,4.7909612 58.769317,6.77312787 57.7336016,8.85935614 C57.4931535,9.36174766 56.9609084,9.65673949 56.4074447,9.5943662 C54.0925553,9.33279678 49.9466801,9.00060362 48.6832998,9.21509054 C49.0521127,10.305835 51.0008048,12.8064386 52.9756539,14.7080483 C53.3480034,15.0667361 53.4741012,15.6111093 53.2973843,16.0969819 C53.1509054,16.4997988 52.8867203,17.2688129 52.4551308,18.644668 L52.2720322,19.2201207 C51.8422277,20.4635214 51.5064734,21.7374641 51.2676056,23.0311871 C51.9665783,22.9065937 52.6516714,22.7138565 53.3130785,22.4557344 C53.5301811,22.3772636 53.7158954,22.3118712 53.8571429,22.2700201 C54.5686117,22.0529175 55.2486922,21.7913481 55.9732394,21.5140845 C56.6245473,21.2525151 57.2967807,20.9909457 58.0030181,20.7790744 C58.1390083,20.7405987 58.2803894,20.7246933 58.4215292,20.731992 Z" id="Shape"></path>
                <path d="M58.3299799,127.907492 C57.669178,127.913049 57.1080164,127.424839 57.0221328,126.769618 C52.9678068,95.5983903 52.8997988,70.9297787 53.556338,55.7142857 C54.2730382,39.2040241 55.9287726,30.2060362 55.9993964,29.831992 C56.0853702,29.3726864 56.4098498,28.9941371 56.8506069,28.8389398 C57.2913641,28.6837425 57.7814372,28.7754754 58.1362206,29.0795836 C58.491004,29.3836919 58.6565975,29.8539741 58.5706237,30.3132797 C58.5523139,30.4022133 56.8730382,39.5519115 56.1668008,55.9026157 C55.5181087,70.9925553 55.5913481,95.4754527 59.6273642,126.42173 C59.6726289,126.765847 59.5792517,127.113844 59.3677987,127.389077 C59.1563456,127.664309 58.8441603,127.844202 58.5,127.889135 C58.4438007,127.899039 58.3869994,127.905157 58.3299799,127.907492 Z" id="Path"></path>
                <path d="M102.273642,78.9625755 C101.810157,78.9603308 101.362146,78.7955664 101.007646,78.4969819 C100.689138,78.2155749 100.430311,77.8731401 100.246479,77.4899396 C99.72334,76.4855131 99.2891348,75.4653924 98.8732394,74.47666 L98.6430584,73.9273642 C98.5828974,73.7913481 98.5253521,73.6422535 98.4678068,73.4905433 C98.4102616,73.338833 98.3788732,73.2551308 98.3317907,73.1452716 C98.3317907,73.1269618 98.3160966,73.1086519 98.3082495,73.0851107 C98.0283702,73.0354125 97.7432596,72.98833 97.4503018,72.9412475 C96.8565392,72.8444668 96.2418511,72.7450704 95.6193159,72.5959759 L95.2871227,72.5305835 C94.0525151,72.2977867 91.7533199,71.8635815 91.6694698,70.0169014 C91.663717,69.5263367 91.8345554,69.0500318 92.1509054,68.6750503 C92.9260342,67.7149273 93.7885483,66.8287708 94.7273642,66.0279678 L95.0647887,65.7219316 C95.4283702,65.3923541 95.7527163,65.0993964 96.0352113,64.8509054 C95.6140845,63.1167002 95.1511066,60.4434608 95.5565392,59.0466801 C95.712196,58.3503103 96.2016394,57.7757037 96.8643863,57.5112676 C97.4551348,57.3038977 98.1060434,57.3561604 98.6561368,57.6551308 C99.8567404,58.1442656 102.108853,59.7162978 103.332998,60.6030181 C104.732787,59.7463919 106.198747,59.0029155 107.716901,58.3796781 C108.195751,58.1806092 108.723264,58.1295889 109.231388,58.2331992 C109.815669,58.377459 110.325005,58.7347403 110.659557,59.2350101 C110.770808,59.3962846 110.858857,59.5723839 110.921127,59.7581489 C111.053866,60.1867457 111.077245,60.6417454 110.989135,61.0816901 C110.662385,62.6892213 110.207546,64.2680341 109.628974,65.8030181 C110.727565,66.8492958 112.697183,68.7561368 113.400805,69.8442656 C113.799048,70.3283089 113.973042,70.9586797 113.879477,71.5784708 C113.741701,72.2773706 113.269445,72.864024 112.616097,73.1478873 C111.334406,73.7991952 108.67163,73.8541247 106.887726,73.7678068 C106.078606,75.3522103 105.08089,76.8329752 103.916298,78.1778672 C103.512876,78.6709449 102.910712,78.9586029 102.273642,78.9625755 Z M94.6750503,69.7160966 C95.0752515,69.8311871 95.5565392,69.9201207 95.7684105,69.9619718 C95.9802817,70.0038229 96.0979879,70.0247485 96.2104628,70.0509054 C96.7519115,70.1764588 97.2959759,70.2653924 97.8714286,70.3595573 C98.3945674,70.4458753 98.9490946,70.5348089 99.5088531,70.6577465 C99.7106378,70.7008999 99.8995995,70.7904552 100.060765,70.9193159 L100.079074,70.9350101 C100.395191,71.2315591 100.617138,71.614509 100.717304,72.0362173 C100.727767,72.0745808 100.738229,72.1085848 100.748692,72.1382294 C100.79839,72.2533199 100.855936,72.3997988 100.910865,72.5488934 C100.965795,72.6979879 101.002414,72.7895372 101.049497,72.8993964 L101.284909,73.4539235 C101.640644,74.3040241 101.9833,75.1122736 102.375654,75.9022133 C103.376027,74.659478 104.220222,73.2987517 104.889336,71.850503 C105.1218,71.3478036 105.645703,71.0460356 106.197183,71.0971831 C107.939235,71.2541247 109.97163,71.1808853 110.968209,70.9559356 C110.207042,69.9881288 108.323742,68.1597586 107.178068,67.1082495 C106.767466,66.7317464 106.640432,66.1364696 106.861569,65.6251509 C107.483404,64.1107956 107.971779,62.5450198 108.321127,60.945674 C106.817203,61.5909095 105.372998,62.3672795 104.005231,63.2657948 C103.544558,63.5777445 102.936953,63.5641023 102.490744,63.2317907 C101.243058,62.3032193 99.0903421,60.7991952 97.9995976,60.2315895 C97.9655936,61.2517103 98.2768612,63.2631791 98.7555332,64.939839 C98.8981546,65.438209 98.7329694,65.9737784 98.3344064,66.3052314 C98.0885312,66.5092555 97.6229376,66.9094567 96.8146881,67.6470825 L96.4720322,67.9583501 C95.8402304,68.5115473 95.2386245,69.0983095 94.6698189,69.7160966 L94.6750503,69.7160966 Z" id="Shape"></path>
                <path d="M12.3382294,60.0772637 C12.1412706,60.0772637 11.9454546,60.0473457 11.7575453,59.98833 C11.2944976,59.8288663 10.9032474,59.5099325 10.6537223,59.0885312 C10.0079777,58.0364899 9.46071991,56.9270889 9.01891348,55.7744467 L8.84366197,55.3585513 C8.6527163,54.9034205 8.48531187,54.4979879 8.34668008,54.1474849 C6.57062374,53.9643863 3.9,53.5066398 2.71509054,52.6617706 C2.11233149,52.2822956 1.73404858,51.6312971 1.7028169,50.9197183 C1.70537093,50.29305 1.97227182,49.6965598 2.43782696,49.2770624 C3.29839034,48.3092555 5.53480885,46.7136821 6.77987928,45.8531187 C6.43984321,44.249036 6.22817394,42.6204072 6.14688129,40.9826962 C6.11793872,40.4616684 6.24644757,39.9439874 6.51569416,39.4969819 C6.84766179,38.9960531 7.35381773,38.6362442 7.9360161,38.4873239 C8.12404067,38.4400716 8.31767856,38.4189475 8.51146881,38.4245473 C8.96032943,38.4422645 9.3975066,38.572698 9.78269618,38.8038229 C11.1887204,39.6499233 12.5244151,40.6077398 13.7768612,41.668008 C15.121328,40.9774648 17.5853119,39.7637827 18.8460765,39.4603622 C19.4355467,39.248398 20.0870838,39.2949364 20.6404427,39.5885312 C21.249529,39.9542678 21.6405083,40.5954739 21.6867203,41.3044266 C21.8724346,42.7299799 21.0354125,45.2567404 20.3605634,46.9098592 C21.5879997,48.202131 22.6558673,49.6370781 23.5412475,51.1839034 C24.1428571,52.2301811 23.8629779,53.4229376 22.8794769,54.0140845 C22.5094321,54.221754 22.1008918,54.3517036 21.6788732,54.3959759 C20.5567404,54.5581489 19.4503018,54.6209256 18.3804829,54.6837022 L17.7841046,54.7177062 C17.6350101,54.7177062 17.4754527,54.7307847 17.3132797,54.7360161 C17.1511066,54.7412475 17.0517103,54.7360161 16.9444668,54.7490946 L16.8790744,54.7490946 C16.737827,54.9949698 16.5991952,55.2486922 16.4579477,55.5076459 C16.1676056,56.0307847 15.8668008,56.5800805 15.5189135,57.1241449 C15.471831,57.1973843 15.4142857,57.2967807 15.3462777,57.4144869 C14.7760563,58.3796781 13.7873239,60.0772637 12.3382294,60.0772637 Z M4.65855131,50.7444668 C5.61066398,51.1185111 7.60905433,51.4977867 9.3668008,51.6076459 C9.88290447,51.6408789 10.330952,51.9751203 10.5098592,52.4603622 C10.622334,52.761167 10.844668,53.334004 11.2684105,54.343662 L11.4462777,54.7674044 C11.7542377,55.5457603 12.103493,56.3071368 12.4925553,57.0482897 C12.7331992,56.7108652 12.9790744,56.2871227 13.0889336,56.1014085 C13.1987928,55.9156942 13.2589537,55.8110664 13.3191147,55.7142857 C13.6199195,55.2460765 13.8867203,54.762173 14.1665996,54.2521127 C14.428169,53.7812877 14.6897384,53.2947686 14.993159,52.8108652 C15.1029943,52.6348078 15.252612,52.4869819 15.4299799,52.3792757 L15.4509054,52.3792757 C15.8357879,52.1778009 16.2720599,52.0958291 16.7038229,52.1438632 L16.8110664,52.1438632 C16.9366197,52.1438632 17.0935614,52.1438632 17.2531187,52.128169 C17.4126761,52.1124748 17.5146881,52.128169 17.627163,52.128169 L18.2313883,52.0915493 C19.1521127,52.0392354 20.0283702,51.9895372 20.9046278,51.8822938 C20.0610319,50.5136923 19.0535124,49.253195 17.9044266,48.1287726 C17.5151302,47.7401718 17.4105896,47.1495175 17.6428571,46.6509054 C18.3700201,45.0605634 18.9820926,43.122334 19.1024145,42.1074447 C17.9358149,42.5024145 15.5816901,43.6637827 14.2084507,44.3935614 C13.7171645,44.6539864 13.1149221,44.5752962 12.7070423,44.1973843 C11.4884017,43.1020967 10.1754596,42.1165148 8.78350101,41.2521127 C8.88847792,42.884849 9.13794468,44.50507 9.52897384,46.0937626 C9.66845413,46.6320438 9.45231622,47.1996681 8.99014085,47.5088531 C7.69537223,48.3903421 5.5583501,49.904829 4.65855131,50.7444668 Z" id="Shape"></path>
                <path d="M84.7484909,42.3742455 C81.4258926,42.3742455 78.7323944,39.6807473 78.7323944,36.3581489 C78.7323944,33.0355505 81.4258926,30.3420523 84.7484909,30.3420523 C88.0710893,30.3420523 90.7645875,33.0355505 90.7645875,36.3581489 C90.7645875,39.6807473 88.0710893,42.3742455 84.7484909,42.3742455 Z M84.7484909,32.9577465 C82.8705005,32.9577465 81.3480885,34.4801585 81.3480885,36.3581489 C81.3480885,38.2361393 82.8705005,39.7585513 84.7484909,39.7585513 C86.6264813,39.7585513 88.1488934,38.2361393 88.1488934,36.3581489 C88.1488934,34.4801585 86.6264813,32.9577465 84.7484909,32.9577465 Z" id="Shape"></path>
                <path d="M71.9315895,80.8249497 C68.6089911,80.8249497 65.915493,78.1314515 65.915493,74.8088531 C65.915493,71.4862547 68.6089911,68.7927565 71.9315895,68.7927565 C75.2541879,68.7927565 77.9476861,71.4862547 77.9476861,74.8088531 C77.9476861,78.1314515 75.2541879,80.8249497 71.9315895,80.8249497 Z M71.9315895,71.4084507 C70.0535991,71.4084507 68.5311871,72.9308627 68.5311871,74.8088531 C68.5311871,76.6868435 70.0535991,78.2092555 71.9315895,78.2092555 C73.8095799,78.2092555 75.331992,76.6868435 75.331992,74.8088531 C75.331992,72.9308627 73.8095799,71.4084507 71.9315895,71.4084507 Z" id="Shape"></path>
                <path d="M24.8490946,24.3259557 C21.5264962,24.3259557 18.832998,21.6324575 18.832998,18.3098592 C18.832998,14.9872608 21.5264962,12.2937626 24.8490946,12.2937626 C28.171693,12.2937626 30.8651911,14.9872608 30.8651911,18.3098592 C30.8651911,19.9054272 30.2313542,21.4356449 29.1031173,22.5638818 C27.9748803,23.6921188 26.4446626,24.3259557 24.8490946,24.3259557 L24.8490946,24.3259557 Z M24.8490946,14.9094567 C22.9711042,14.9094567 21.4486922,16.4318688 21.4486922,18.3098592 C21.4486922,20.1878496 22.9711042,21.7102616 24.8490946,21.7102616 C26.727085,21.7102616 28.249497,20.1878496 28.249497,18.3098592 C28.249497,16.4318688 26.727085,14.9094567 24.8490946,14.9094567 Z" id="Shape"></path>
                <path d="M110.905433,100.965795 C107.582834,100.965795 104.889336,98.2722966 104.889336,94.9496982 C104.889336,91.6270998 107.582834,88.9336016 110.905433,88.9336016 C114.228031,88.9336016 116.921529,91.6270998 116.921529,94.9496982 C116.921529,98.2722966 114.228031,100.965795 110.905433,100.965795 Z M110.905433,91.5492958 C109.027442,91.5492958 107.50503,93.0717078 107.50503,94.9496982 C107.50503,96.8276886 109.027442,98.3501006 110.905433,98.3501006 C112.783423,98.3501006 114.305835,96.8276886 114.305835,94.9496982 C114.305835,93.0717078 112.783423,91.5492958 110.905433,91.5492958 Z" id="Shape"></path>
                <path d="M6.01609658,118.490946 C2.69349819,118.490946 0,115.797447 0,112.474849 C0,109.152251 2.69349819,106.458753 6.01609658,106.458753 C9.33869497,106.458753 12.0321932,109.152251 12.0321932,112.474849 C12.0321932,115.797447 9.33869497,118.490946 6.01609658,118.490946 Z M6.01609658,109.074447 C4.13810618,109.074447 2.61569416,110.596859 2.61569416,112.474849 C2.61569416,114.352839 4.13810618,115.875252 6.01609658,115.875252 C7.89408698,115.875252 9.41649899,114.352839 9.41649899,112.474849 C9.41649899,110.596859 7.89408698,109.074447 6.01609658,109.074447 L6.01609658,109.074447 Z" id="Shape"></path>
                <path d="M12.8169014,93.1187123 C9.49430301,93.1187123 6.80080483,90.4252141 6.80080483,87.1026157 C6.80080483,83.7800173 9.49430301,81.0865191 12.8169014,81.0865191 C16.1394998,81.0865191 18.832998,83.7800173 18.832998,87.1026157 C18.832998,90.4252141 16.1394998,93.1187123 12.8169014,93.1187123 Z M12.8169014,83.7022133 C10.938911,83.7022133 9.41649899,85.2246253 9.41649899,87.1026157 C9.41649899,88.9806061 10.938911,90.5030181 12.8169014,90.5030181 C14.6948918,90.5030181 16.2173038,88.9806061 16.2173038,87.1026157 C16.2173038,85.2246253 14.6948918,83.7022133 12.8169014,83.7022133 L12.8169014,83.7022133 Z" id="Shape"></path>
                <path d="M70.8853119,128.16909 C70.8205866,128.16909 70.7559478,128.164198 70.6917505,128.155936 C70.3482462,128.105526 70.0388813,127.920603 69.8318294,127.641917 C69.6247775,127.363231 69.5370315,127.013654 69.5879276,126.670221 C71.5928797,113.3063 76.3567671,100.505803 83.57666,89.0826962 C89.0277666,80.4770624 93.8458753,75.8812877 94.0394366,75.6903421 C94.5638293,75.1933969 95.3917872,75.2156476 95.8887324,75.7400403 C96.3856775,76.264433 96.3634269,77.0923909 95.8390342,77.589336 C95.7684105,77.6547284 91,82.2243461 85.7267606,90.5605634 C78.7409239,101.657803 74.13267,114.083345 72.193159,127.052113 C72.0977269,127.699013 71.5391756,128.176015 70.8853119,128.16909 Z" id="Path"></path>
                <path d="M44.7283702,127.907726 C44.0761465,127.905678 43.5249177,127.423631 43.4362173,126.777465 C41.0697321,109.587751 35.9988812,92.8806039 28.41167,77.2754527 C22.7565392,65.7402414 17.7867203,59.2507042 17.7239437,59.1879276 C17.4310761,58.8192865 17.3589547,58.3216807 17.5351101,57.8850608 C17.7112656,57.448441 18.1085078,57.1402012 18.5751975,57.0780057 C19.0418873,57.0158101 19.5059893,57.2092589 19.7903421,57.584507 C19.9995976,57.8460765 24.9929577,64.3513078 30.7605634,76.1245473 C38.4729187,91.9798422 43.6285209,108.955368 46.0362173,126.42173 C46.1339202,127.136672 45.6341199,127.79566 44.9193159,127.894366 C44.8562006,127.90455 44.7922847,127.908928 44.7283702,127.907726 L44.7283702,127.907726 Z" id="Path"></path>
                <path d="M29.8189135,128.169014 C29.2800489,128.169338 28.7961466,127.839121 28.6,127.337223 C26.0366197,120.771831 20.5907445,117.544064 17.5722334,116.204829 C16.9120476,115.911574 16.6145918,115.138657 16.9078472,114.478471 C17.2011026,113.818285 17.9740194,113.520829 18.6342052,113.814085 C22.0189135,115.315493 28.1317907,118.946076 31.037827,126.385111 C31.195175,126.787731 31.1434146,127.242093 30.8995412,127.599006 C30.6556678,127.95592 30.2511882,128.169274 29.8189135,128.169014 Z" id="Path"></path>
                <path d="M37.4462777,128.574447 C36.7992171,128.573808 36.2498894,128.100096 36.1541247,127.460161 L36.1148893,127.198592 C36.0452693,126.734614 36.228467,126.268738 36.5954737,125.976457 C36.9624804,125.684175 37.4575391,125.609891 37.8941659,125.781587 C38.3307927,125.953284 38.6426536,126.344875 38.7122736,126.808853 L38.7541247,127.070423 C38.8058204,127.41387 38.7187812,127.763776 38.5122012,128.042978 C38.3056213,128.32218 37.9964683,128.507745 37.6529175,128.558753 C37.5844373,128.568335 37.5154196,128.573577 37.4462777,128.574447 L37.4462777,128.574447 Z M36.2901408,123.199207 C35.7049851,123.199021 35.1911543,122.810176 35.031992,122.247082 L34.9613682,122.001207 C34.7763979,121.312174 35.1777639,120.602027 35.863473,120.405091 C36.5491822,120.208155 37.2662078,120.597098 37.4750503,121.279276 L37.5482897,121.540845 C37.7445344,122.235675 37.3405932,122.958086 36.6458753,123.154728 C36.529694,123.184741 36.410135,123.199686 36.2901408,123.199207 Z M34.5062374,118.007042 C33.9725213,118.007347 33.4921651,117.683314 33.2925553,117.18833 L33.1957746,116.952918 C32.9212991,116.284064 33.2410057,115.519345 33.9098592,115.244869 C34.5787127,114.970394 35.3434319,115.2901 35.6179074,115.958954 L35.7173038,116.207445 C35.9881498,116.87702 35.6649354,117.639385 34.9953722,117.910262 C34.8405772,117.976282 34.6744953,118.011808 34.5062374,118.014889 L34.5062374,118.007042 Z M32.1991952,113.018914 C31.7111051,113.01946 31.2633244,112.748169 31.037827,112.315292 L30.9201207,112.087726 C30.6045538,111.451315 30.8546795,110.679372 31.4835155,110.348966 C32.1123515,110.018561 32.8899481,110.250514 33.2350101,110.871429 L33.3579477,111.106841 C33.56905,111.512084 33.5533494,111.998119 33.3165332,112.388892 C33.0797169,112.779666 32.6561259,113.018512 32.1991952,113.018914 L32.1991952,113.018914 Z M29.455332,108.25835 C29.0063568,108.258582 28.5886461,108.028495 28.3488934,107.648893 L28.2102616,107.434406 C27.9584145,107.040516 27.9358364,106.542187 28.1510322,106.127136 C28.366228,105.712084 28.7865044,105.443367 29.2535473,105.422206 C29.7205902,105.401045 30.1634447,105.630657 30.4152918,106.024547 L30.5565392,106.249497 C30.8119863,106.651832 30.8283582,107.16127 30.5992713,107.579177 C30.3701845,107.997083 29.931909,108.257294 29.455332,108.25835 L29.455332,108.25835 Z M26.316499,103.735815 C25.9048446,103.735815 25.517214,103.542 25.2702213,103.212676 L25.1158954,103.008652 C24.8355461,102.634853 24.7759121,102.139884 24.9594569,101.710195 C25.1430017,101.280506 25.5418405,100.981377 26.0057346,100.925486 C26.4696287,100.869596 26.9281014,101.065436 27.2084507,101.439235 L27.3706237,101.653722 C27.6678493,102.050023 27.7156589,102.58024 27.4941201,103.023318 C27.2725812,103.466395 26.819722,103.746278 26.3243461,103.746278 L26.316499,103.735815 Z M22.8140845,99.4905437 C22.4497747,99.4908302 22.1018554,99.3391488 21.8541247,99.0720322 L21.6919517,98.8967807 C21.1932161,98.3769443 21.208768,97.5516739 21.7267347,97.0509968 C22.2447014,96.5503197 23.0700241,96.5627835 23.5726358,97.0788732 L23.7740443,97.2933602 C24.1277914,97.6747888 24.2218451,98.2296035 24.0135708,98.7063075 C23.8052966,99.1830115 23.3343005,99.4909533 22.8140845,99.4905437 L22.8140845,99.4905437 Z" id="Shape"></path>
                <path d="M64.7750503,123.879276 L64.7227364,123.879276 C64.0012329,123.850936 63.4392086,123.243247 63.4672032,122.52173 L63.4672032,122.260161 C63.4854259,121.792912 63.7515386,121.370878 64.1652993,121.153035 C64.5790599,120.935192 65.0776084,120.954635 65.4731464,121.204041 C65.8686844,121.453447 66.1011201,121.894924 66.0828974,122.362173 L66.0828974,122.623742 C66.0548033,123.325538 65.477408,123.879838 64.7750503,123.879276 L64.7750503,123.879276 Z M65.0104628,118.386318 L64.9450704,118.386318 C64.5985299,118.36939 64.2729167,118.215458 64.0398969,117.9584 C63.8068771,117.701342 63.6855487,117.362228 63.7026157,117.015694 L63.7026157,116.769819 L65.0104628,116.819517 L66.3183099,116.892757 L66.3183099,117.154326 C66.2807482,117.848911 65.7060619,118.392564 65.0104628,118.391551 L65.0104628,118.386318 Z M65.2929577,112.89336 L65.2171026,112.89336 C64.8705081,112.873802 64.545909,112.71725 64.3148214,112.458196 C64.0837338,112.199143 63.9651191,111.858843 63.9851107,111.512274 L64.0008048,111.250704 C64.0419762,110.5284 64.6608952,109.976233 65.3831992,110.017404 C66.1055032,110.058576 66.6576703,110.677495 66.616499,111.399799 L66.6008048,111.661368 C66.5672781,112.359045 65.9914396,112.907244 65.2929577,112.90644 L65.2929577,112.89336 Z M65.6382294,107.413481 L65.5466801,107.413481 C65.2004523,107.389354 64.8780124,107.228597 64.6503713,106.966613 C64.4227303,106.70463 64.3085578,106.362906 64.332998,106.0167 L64.3513078,105.755131 C64.3840153,105.287882 64.6635124,104.873576 65.0845154,104.668277 C65.5055184,104.462978 66.0040669,104.497876 66.3923625,104.759826 C66.7806581,105.021776 66.9997094,105.470981 66.967002,105.938229 L66.9486922,106.199799 C66.9057438,106.891267 66.3310247,107.429277 65.6382294,107.42657 L65.6382294,107.413481 Z M66.0567404,101.936217 C66.0201657,101.938784 65.983456,101.938784 65.9468813,101.936217 C65.2276329,101.875222 64.6937966,101.243047 64.7541247,100.523742 L64.7750503,100.262173 C64.8364462,99.5398691 65.4717604,99.0040972 66.1940644,99.065493 C66.9163684,99.1268888 67.4521403,99.7622031 67.3907445,100.484507 L67.3672032,100.746076 C67.3124641,101.428239 66.7410865,101.952857 66.0567404,101.949314 L66.0567404,101.936217 Z M66.5798793,96.4668008 C66.5345767,96.4693599 66.4891658,96.4693599 66.4438632,96.4668008 C66.09869,96.4311799 65.7818225,96.2598432 65.5630214,95.9905118 C65.3442202,95.7211803 65.2414238,95.3759352 65.2772636,95.0307847 L65.3060362,94.7692153 C65.3329316,94.288882 65.6213624,93.8620937 66.057012,93.6580035 C66.4926616,93.4539132 67.0051867,93.5054751 67.3914532,93.7922531 C67.7777197,94.079031 67.975358,94.5547197 67.9060362,95.0307847 L67.8798793,95.2923541 C67.8174406,95.9683019 67.2482287,96.4841146 66.5694165,96.4799052 L66.5798793,96.4668008 Z M67.1919517,91.0261569 C67.1370914,91.0300589 67.0820233,91.0300589 67.027163,91.0261569 C66.3107456,90.936401 65.802597,90.2830671 65.8919517,89.5665996 L65.9259557,89.3050302 C66.0219879,88.5931272 66.6742318,88.0919306 67.3868572,88.1824455 C68.0994827,88.2729604 68.6057166,88.9213024 68.5207243,89.6346076 L68.489336,89.8961771 C68.4003635,90.5443121 67.8461645,91.0270016 67.1919517,91.0261569 Z" id="Shape"></path>
                <path d="M76.0591549,62.3006036 C75.9533135,62.300456 75.8478928,62.2872784 75.7452716,62.2613682 C75.0439232,62.0887256 74.6153116,61.3802282 74.7879276,60.6788732 L74.8533199,60.4173038 C74.9535433,59.9507386 75.2999323,59.5757978 75.7571161,59.4390105 C76.2142999,59.3022232 76.7096953,59.425306 77.0496988,59.7601574 C77.3897022,60.0950087 77.5203343,60.5884671 77.3905433,61.0476861 L77.3277666,61.3092555 C77.1825029,61.8916767 76.6594181,62.3004378 76.0591549,62.3006036 L76.0591549,62.3006036 Z M77.4663984,56.9907445 C77.0567273,56.9906227 76.6707829,56.798546 76.4236669,56.4717981 C76.176551,56.1450502 76.0968189,55.7213884 76.2082495,55.327163 L76.2814889,55.0655936 C76.4822895,54.3714595 77.2077773,53.9715336 77.9019114,54.1723341 C78.5960455,54.3731346 78.9959715,55.0986224 78.795171,55.7927565 L78.7245473,56.0386318 C78.565385,56.6017255 78.0515541,56.9905705 77.4663984,56.9907445 L77.4663984,56.9907445 Z M79.1561368,51.7593561 C78.9921989,51.75967 78.8297167,51.7285942 78.6774648,51.6678068 C78.0060324,51.4031221 77.6759226,50.6445717 77.939839,49.972837 C78.0156942,49.7792757 78.0575453,49.6877264 78.0575453,49.6877264 C78.3464669,49.0253736 79.1176271,48.7226479 79.7799799,49.0115695 C80.4423326,49.3004911 80.7450584,50.0716513 80.4561368,50.734004 C80.4561368,50.734004 80.4221328,50.8098592 80.3724346,50.9354125 C80.177476,51.4374498 79.6946987,51.7686454 79.1561368,51.7698189 L79.1561368,51.7593561 Z" id="Shape"></path>
                <path d="M78.0026157,129.738432 C77.8831542,129.738608 77.7642689,129.721876 77.649497,129.688732 C76.9539834,129.49435 76.5476561,128.773031 76.7418511,128.077465 L76.8150905,127.815895 C76.9376409,127.359383 77.2969811,127.00452 77.7549941,126.887703 C78.2130071,126.770886 78.6984124,126.910295 79.024638,127.252346 C79.3508636,127.594397 79.4671392,128.085857 79.3287726,128.537827 L79.2607646,128.778471 C79.1045264,129.344676 78.5899806,129.737271 78.0026157,129.738432 L78.0026157,129.738432 Z M79.8571429,124.577666 C79.6765948,124.576655 79.4983062,124.537431 79.334004,124.462575 C79.016944,124.321781 78.7688128,124.060784 78.6442117,123.737018 C78.5196107,123.413251 78.5287497,123.053245 78.6696177,122.736217 L78.7820926,122.490342 C79.0877275,121.846201 79.8529735,121.565543 80.5026006,121.859337 C81.1522278,122.153132 81.4468446,122.913112 81.1649899,123.568008 L81.0603622,123.800805 C80.8524856,124.279963 80.3794486,124.589494 79.8571429,124.588133 L79.8571429,124.577666 Z M82.4492958,119.741247 C82.2017414,119.741685 81.9592929,119.670857 81.7509054,119.537223 C81.4577721,119.351681 81.250367,119.057276 81.1743307,118.718792 C81.0982945,118.380307 81.1598576,118.025481 81.3454728,117.732394 L81.4919517,117.504829 C81.7349973,117.090688 82.1854491,116.843043 82.6653508,116.859729 C83.1452524,116.876416 83.5774158,117.154749 83.7911095,117.584772 C84.0048033,118.014794 83.9656566,118.527339 83.6891348,118.91992 L83.5557344,119.131791 C83.3184922,119.515396 82.9003308,119.749685 82.4492958,119.75171 L82.4492958,119.741247 Z M85.7110664,115.325956 C85.2015701,115.325121 84.7389359,115.028477 84.5255695,114.565809 C84.312203,114.10314 84.3869479,113.558677 84.7171026,113.170624 L84.8949698,112.963984 C85.2010177,112.610744 85.672269,112.447611 86.1312079,112.536036 C86.5901468,112.624462 86.9670495,112.951011 87.1199404,113.392676 C87.2728312,113.834342 87.1784826,114.324024 86.8724346,114.677264 L86.7076459,114.868209 C86.4605371,115.163326 86.0959734,115.334604 85.7110664,115.336419 L85.7110664,115.325956 Z M89.5535211,111.402414 C89.0110227,111.402444 88.5248272,111.067554 88.331483,110.560679 C88.1381389,110.053803 88.2777912,109.480188 88.682495,109.118913 L88.8839034,108.938431 C89.2324149,108.616049 89.7282604,108.507846 90.1793928,108.655731 C90.6305252,108.803616 90.9660892,109.184362 91.0561166,109.650501 C91.1461441,110.11664 90.9764953,110.59496 90.6128773,110.900201 L90.4245473,111.067606 C90.187627,111.287616 89.8768346,111.410813 89.5535211,111.412877 L89.5535211,111.402414 Z M93.8772636,108.002012 C93.3034734,108.002201 92.7965685,107.628365 92.6272343,107.080131 C92.4579001,106.531896 92.6656871,105.937312 93.1396378,105.613883 L93.3619718,105.462173 C93.7492261,105.191544 94.2523338,105.150809 94.6780821,105.355612 C95.1038304,105.560415 95.3860272,105.978914 95.416298,106.45039 C95.4465687,106.921866 95.2202071,107.373017 94.8241449,107.630584 L94.6148893,107.774447 C94.4005467,107.932083 94.1432233,108.020595 93.8772636,108.028169 L93.8772636,108.002012 Z M98.6325956,105.239839 C98.0181254,105.240473 97.4860775,104.813256 97.3539793,104.213152 C97.2218811,103.613049 97.5253602,103.001911 98.0832998,102.744467 C98.2637827,102.658149 98.3631791,102.618913 98.3631791,102.618913 C99.0201882,102.369954 99.7565084,102.684585 100.030727,103.331459 C100.304945,103.978333 100.019068,104.726286 99.3832998,105.025352 L99.1818913,105.116901 C99.0117561,105.205073 98.8241089,105.254219 98.6325956,105.260765 L98.6325956,105.239839 Z" id="Shape"></path>
                <path d="M51.0060362,126.225553 C50.339056,126.230054 49.7755454,125.731911 49.6981891,125.069416 L49.6668008,124.807847 C49.6111982,124.343869 49.8073486,123.885472 50.1813641,123.60533 C50.5553795,123.325188 51.0504382,123.26586 51.4800562,123.449696 C51.9096743,123.633532 52.2085825,124.032601 52.2641851,124.496579 L52.2955734,124.758149 C52.3799845,125.475369 51.8670973,126.12526 51.1498994,126.209859 C51.1022194,126.217357 51.0542113,126.222594 51.0060362,126.225553 L51.0060362,126.225553 Z" id="Path"></path>
                <path d="M50.32334,120.771831 C49.6634125,120.777602 49.1025815,120.290801 49.015493,119.63662 L48.9814889,119.37505 C48.9043479,118.904118 49.0898304,118.428553 49.4654487,118.134209 C49.8410671,117.839864 50.3471875,117.773471 50.7860152,117.960976 C51.2248428,118.148481 51.5267087,118.560115 51.5736419,119.03501 L51.6076459,119.296579 C51.6536982,119.640712 51.5610225,119.989033 51.3500432,120.264778 C51.1390638,120.540523 50.8270976,120.721059 50.4828974,120.7666 C50.4307409,120.771569 50.3783274,120.773316 50.3259557,120.771831 L50.32334,120.771831 Z" id="Path"></path>
                <path d="M49.5752515,115.328571 C48.926478,115.327548 48.3765213,114.851067 48.2830986,114.209054 L48.2438632,113.947485 C48.1775139,113.484909 48.3629861,113.022074 48.7304142,112.733325 C49.0978423,112.444577 49.5914053,112.373783 50.0251828,112.547611 C50.4589603,112.721439 50.7670511,113.11348 50.8334004,113.576056 L50.8700201,113.837626 C50.9201183,114.181043 50.8316663,114.530291 50.6241422,114.808461 C50.4166181,115.086632 50.1070403,115.270913 49.7635815,115.320724 C49.7018948,115.327127 49.6398741,115.329748 49.5778672,115.328571 L49.5752515,115.328571 Z" id="Path"></path>
                <path d="M48.7617706,109.893159 C48.1182559,109.891826 47.5713335,109.42256 47.4722334,108.78672 L47.4303823,108.525151 C47.3523524,108.060724 47.5300387,107.590208 47.8955829,107.293292 C48.2611271,106.996377 48.7580757,106.918918 49.1966441,107.090495 C49.6352125,107.262073 49.9476696,107.656191 50.0146881,108.122334 L50.0565392,108.383903 C50.1677209,109.097527 49.6794026,109.766183 48.9657948,109.877465 C48.8991495,109.88776 48.8318218,109.893006 48.7643863,109.893159 L48.7617706,109.893159 Z" id="Path"></path>
                <path d="M47.8881288,104.468209 C47.2488296,104.467915 46.7034366,104.005492 46.5985915,103.374849 L46.5567404,103.11328 C46.4492633,102.407139 46.9282065,101.745374 47.6325675,101.62679 C48.3369285,101.508206 49.0061532,101.976668 49.1358149,102.679074 L49.1802817,102.940644 C49.236953,103.283015 49.1552293,103.633873 48.9531049,103.915964 C48.7509804,104.198056 48.4450287,104.388249 48.1026157,104.444668 C48.0328405,104.458851 47.9619311,104.46673 47.8907445,104.468209 L47.8881288,104.468209 Z" id="Path"></path>
                <path d="M46.954326,99.0537223 C46.3201806,99.0532495 45.7777456,98.5979127 45.6674044,97.9734406 L45.6203219,97.7118712 C45.4931965,97.0004018 45.9669008,96.3205863 46.6783702,96.1934608 C47.3898396,96.0663353 48.0696552,96.5400396 48.1967807,97.2515091 L48.2412475,97.5130785 C48.3685236,98.2203471 47.9013037,98.8978159 47.1949698,99.0301811 C47.116448,99.0448325 47.0368123,99.0527085 46.9569416,99.0537223 L46.954326,99.0537223 Z" id="Path"></path>
                <path d="M45.9629779,93.6418511 C45.335566,93.6417451 44.7966254,93.1961038 44.678672,92.5798793 L44.6289738,92.3183099 C44.4946253,91.608285 44.9613032,90.9237852 45.671328,90.7894367 C46.3813528,90.6550881 47.0658526,91.1217659 47.2002012,91.8317907 L47.2472837,92.0933602 C47.3122577,92.4351096 47.2384026,92.7886633 47.0420534,93.0758241 C46.8457042,93.3629848 46.5430412,93.5600887 46.201006,93.6235412 C46.1223751,93.6367882 46.0427097,93.6429163 45.9629779,93.6418511 L45.9629779,93.6418511 Z" id="Path"></path>
                <path d="M44.9167002,88.2482897 C44.2951215,88.2484166 43.7593258,87.8110323 43.6350101,87.2020121 L43.5826962,86.9404427 C43.4382354,86.2318624 43.8955445,85.5403361 44.6041247,85.3958753 C45.312705,85.2514145 46.0042314,85.7087236 46.1486922,86.4173038 L46.1983903,86.6788732 C46.3412547,87.3867014 45.8834255,88.0763725 45.1756539,88.2195171 C45.08904,88.2401486 45.0004842,88.2515468 44.9114688,88.2535211 L44.9167002,88.2482897 Z" id="Path"></path>
                <path d="M43.8076459,82.8651911 C43.1870501,82.8640764 42.6526898,82.4269719 42.5285714,81.8189135 L42.4762575,81.5573441 C42.3658603,81.0950387 42.5149681,80.6092326 42.8657129,80.288465 C43.2164576,79.9676973 43.7136175,79.8624702 44.164247,80.0136218 C44.6148765,80.1647735 44.9480278,80.5485063 45.0344064,81.0158954 L45.089336,81.2774648 C45.1613698,81.6170641 45.0954299,81.9713694 44.9060448,82.2623159 C44.7166598,82.5532624 44.41937,82.7569757 44.0796781,82.8285714 C43.9891745,82.8531412 43.8961379,82.8671845 43.8024145,82.8704225 L43.8076459,82.8651911 Z" id="Path"></path>
                <path d="M42.6358149,77.5004024 C42.0225546,77.5001612 41.4918203,77.0738336 41.3593561,76.4750503 L41.3018109,76.2134809 C41.1450709,75.5077899 41.5900836,74.8086514 42.2957746,74.6519115 C43.0014657,74.4951715 43.7006041,74.9401842 43.8573441,75.6458753 L43.9122736,75.9074447 C43.9902534,76.2471217 43.9294333,76.6038736 43.7433113,76.8985258 C43.5571894,77.1931781 43.2611614,77.401357 42.9209256,77.4768612 C42.8271737,77.4960932 42.7314515,77.5039969 42.6358149,77.5004024 L42.6358149,77.5004024 Z" id="Path"></path>
                <path d="M41.4142857,72.1408451 C40.806892,72.1395526 40.2803283,71.7202519 40.1430584,71.1285714 L40.0828974,70.867002 C39.9768319,70.4119017 40.1216165,69.9347864 40.4627121,69.6153809 C40.8038078,69.2959753 41.2893941,69.1828048 41.7365552,69.3184996 C42.1837164,69.4541943 42.5245181,69.8181391 42.6305835,70.2732394 L42.6907445,70.5348089 C42.8538896,71.2383171 42.4159426,71.9409058 41.7124748,72.1042254 C41.6154696,72.1265513 41.5164221,72.1388227 41.4169014,72.1408451 L41.4142857,72.1408451 Z" id="Path"></path>
                <path d="M40.1404427,66.7943662 C39.5369095,66.7945152 39.0116491,66.3816562 38.8692153,65.795171 L38.8090543,65.5336016 C38.6814074,65.0739304 38.8141798,64.5812212 39.1555103,64.2479272 C39.4968407,63.9146333 39.992573,63.7936358 40.449073,63.9321967 C40.905573,64.0707575 41.2504113,64.4468924 41.3488934,64.9136821 L41.41167,65.1752515 C41.575733,65.8738801 41.1461924,66.574218 40.4490946,66.744668 C40.3495456,66.7738937 40.24674,66.7905887 40.1430584,66.7943662 L40.1404427,66.7943662 Z" id="Path"></path>
                <path d="M38.8090543,61.4688129 C38.2112859,61.4680537 37.690109,61.0620957 37.5430584,60.4826962 L37.4802817,60.2211268 C37.3321119,59.5341433 37.753353,58.8528777 38.4341458,58.6784597 C39.1149387,58.5040417 39.8118643,58.8988349 40.0122736,59.5724346 L40.077666,59.834004 C40.2560635,60.5339149 39.833306,61.2459276 39.1334004,61.4243461 C39.0276891,61.4532608 38.918647,61.4682101 38.8090543,61.4688129 Z" id="Path"></path>
                <path d="M37.4227364,56.148491 C36.8312016,56.1487225 36.3131552,55.7518753 36.1593561,55.1806841 L36.0913481,54.9191147 C35.9187342,54.2265291 36.3333033,53.5234552 37.0229036,53.3392763 C37.7125038,53.1550974 38.4224163,53.5578438 38.6181087,54.2442656 L38.6861167,54.505835 C38.8723626,55.2035663 38.4578401,55.9201985 37.760161,56.1066398 C37.6497308,56.1331192 37.5362294,56.1445573 37.4227364,56.1406439 L37.4227364,56.148491 Z" id="Path"></path>
                <path d="M35.9736419,50.8464789 C35.387015,50.8456463 34.8727085,50.4543029 34.715493,49.8891348 L34.6448692,49.6275654 C34.4641217,48.9368992 34.8706462,48.2288974 35.5582492,48.0368255 C36.2458522,47.8447536 36.9604383,48.2395895 37.1637827,48.9239437 L37.2344064,49.1855131 C37.4269257,49.8802405 37.0209594,50.5997485 36.3267606,50.794165 C36.2117354,50.8255411 36.0928547,50.8405113 35.9736419,50.8386318 L35.9736419,50.8464789 Z" id="Path"></path>
                <path d="M34.3294302,45.4940028 C33.7428034,45.4931703 33.2284968,45.1018269 33.0712813,44.5366588 L33.0006576,44.2750893 C32.8199101,43.5844231 33.2264345,42.8764213 33.9140375,42.6843495 C34.6016406,42.4922776 35.3162266,42.8871135 35.519571,43.5714676 L35.5901948,43.833037 C35.782714,44.5277644 35.3767478,45.2472724 34.6825489,45.4416889 C34.5675238,45.4730651 34.4486431,45.4880353 34.3294302,45.4861557 L34.3294302,45.4940028 Z" id="Path"></path>
                <path d="M32.8949698,40.2921534 C32.3213942,40.2926186 31.8144462,39.9193013 31.644668,39.3714286 L31.5688129,39.1098592 C31.4140946,38.6587914 31.5171463,38.1592659 31.8377454,37.8062558 C32.1583444,37.4532456 32.6456684,37.302711 33.1095068,37.413408 C33.5733452,37.524105 33.940169,37.8784857 34.0668008,38.3382294 L34.1452716,38.5867203 C34.2683155,38.9837808 34.1952756,39.4156885 33.9485135,39.750211 C33.7017515,40.0847336 33.3106581,40.2820277 32.8949698,40.2816901 L32.8949698,40.2921534 Z" id="Path"></path>
                <path d="M31.2209256,35.0607646 C30.6589315,35.0607136 30.1598006,34.7016343 29.9810865,34.1688129 L29.9,33.9255533 C29.7429364,33.4820564 29.8361916,32.9883741 30.1442108,32.6327301 C30.45223,32.277086 30.9275382,32.1142955 31.3889174,32.2064247 C31.8502965,32.2985538 32.2266344,32.631403 32.3744467,33.0780684 L32.4633803,33.3396378 C32.5735335,33.6688055 32.5483146,34.0282607 32.3932788,34.338823 C32.2382429,34.6493854 31.9661085,34.8855779 31.6368209,34.9953722 C31.4988504,35.0377533 31.3546699,35.0563287 31.2104628,35.0503018 L31.2209256,35.0607646 Z" id="Path"></path>
            </g>
        </g>
    </g>
</svg>