<?xml version="1.0" encoding="UTF-8"?>
<svg width="21px" height="26px" viewBox="0 0 21 26" version="1.1" xmlns="http://www.w3.org/2000/svg" xmlns:xlink="http://www.w3.org/1999/xlink">
    <title>64ADE7B0-D524-4D4B-B622-7DFCED710EBC</title>
    <g id="My-Team" stroke="none" stroke-width="1" fill="none" fill-rule="evenodd">
        <g id="My-Team---Wire-Up-2---Purple-Icon" transform="translate(-1020.000000, -198.000000)" fill="#4E1E8F" fill-rule="nonzero">
            <path d="M1041,214.355348 C1041,213.158632 1040.15976,212.157387 1039.04651,211.927124 L1039.04651,209.250497 C1039.04651,209.006653 1038.92872,208.778372 1038.73122,208.639451 C1038.53372,208.50053 1038.28162,208.468711 1038.05673,208.554403 L1036.65857,209.086497 C1035.74043,208.117815 1034.6244,207.388217 1033.40142,206.940329 C1034.6032,206.036621 1035.38372,204.58724 1035.38372,202.956166 C1035.38372,200.223287 1033.19293,198 1030.5,198 C1027.80707,198 1025.61628,200.223287 1025.61628,202.956166 C1025.61628,204.58724 1026.3968,206.036621 1027.59858,206.940329 C1026.37555,207.388267 1025.25957,208.117864 1024.34143,209.086497 L1022.94327,208.554403 C1022.71833,208.468711 1022.46623,208.50053 1022.26878,208.639451 C1022.07128,208.778372 1021.95349,209.006653 1021.95349,209.250497 L1021.95349,211.927124 C1020.84024,212.157387 1020,213.158582 1020,214.355348 C1020,215.552113 1020.84024,216.553308 1021.95349,216.783572 L1021.95349,219.658445 C1021.95349,219.968355 1022.14293,220.245751 1022.42882,220.354539 L1030.24277,223.328239 C1030.40755,223.390587 1030.5924,223.390587 1030.75718,223.328239 L1038.57113,220.354539 C1038.85702,220.245751 1039.04646,219.968355 1039.04646,219.658445 L1039.04646,216.783572 C1040.15976,216.553308 1041,215.552064 1041,214.355348 Z M1027.0814,202.956166 C1027.0814,201.043185 1028.61498,199.48685 1030.5,199.48685 C1032.38502,199.48685 1033.9186,201.043185 1033.9186,202.956166 C1033.9186,204.869147 1032.38502,206.425482 1030.5,206.425482 C1028.61498,206.425482 1027.0814,204.869147 1027.0814,202.956166 Z M1030.5,207.912332 C1032.21629,207.912332 1033.85556,208.541815 1035.1346,209.666468 L1030.5,211.430219 L1025.8654,209.666468 C1027.14449,208.541815 1028.78376,207.912332 1030.5,207.912332 L1030.5,207.912332 Z M1021.46512,214.355348 C1021.46512,213.808782 1021.90328,213.364115 1022.44186,213.364115 L1022.93023,213.364115 L1022.93023,215.346581 L1022.44186,215.346581 C1021.90328,215.346581 1021.46512,214.901914 1021.46512,214.355348 Z M1023.4186,216.808501 C1023.9752,216.69337 1024.39535,216.192747 1024.39535,215.594389 L1024.39535,213.116306 C1024.39535,212.517948 1023.9752,212.017326 1023.4186,211.902194 L1023.4186,210.323259 L1029.76744,212.73939 L1029.76744,221.559432 L1023.4186,219.143302 L1023.4186,216.808501 Z M1031.23256,221.559383 L1031.23256,212.73939 L1037.5814,210.323259 L1037.5814,211.902194 C1037.0248,212.017326 1036.60465,212.517948 1036.60465,213.116306 L1036.60465,215.594389 C1036.60465,216.192747 1037.0248,216.69337 1037.5814,216.808501 L1037.5814,219.143252 L1031.23256,221.559383 Z M1038.55814,215.346581 L1038.06977,215.346581 L1038.06977,213.364115 L1038.55814,213.364115 C1039.09672,213.364115 1039.53488,213.808782 1039.53488,214.355348 C1039.53488,214.901914 1039.09677,215.346581 1038.55814,215.346581 Z" id="Shape"></path>
        </g>
    </g>
</svg>